HIERARCHY
ROOT Hips
{
	OFFSET 0.000000 0.000000 0.000000
	CHANNELS 6 Xposition Yposition Zposition Zrotation Yrotation Xrotation 
	JOINT LHipJoint
	{
		OFFSET 0.000000 0.000000 0.000000
		CHANNELS 3 Zrotation Yrotation Xrotation
		JOINT LeftUpLeg
		{
			OFFSET 1.363060 -1.794630 0.839290
			CHANNELS 3 Zrotation Yrotation Xrotation
			JOINT LeftLeg
			{
				OFFSET 2.448110 -6.726130 0.000000
				CHANNELS 3 Zrotation Yrotation Xrotation
				JOINT LeftFoot
				{
					OFFSET 2.562200 -7.039590 0.000000
					CHANNELS 3 Zrotation Yrotation Xrotation
					JOINT LeftToeBase
					{
						OFFSET 0.157640 -0.433110 2.322550
						CHANNELS 3 Zrotation Yrotation Xrotation
						End Site
						{
							OFFSET 0.000000 0.000000 0.000000
						}
					}
				}
			}
		}
	}
	JOINT RHipJoint
	{
		OFFSET 0.000000 0.000000 0.000000
		CHANNELS 3 Zrotation Yrotation Xrotation
		JOINT RightUpLeg
		{
			OFFSET -1.305520 -1.794630 0.839290
			CHANNELS 3 Zrotation Yrotation Xrotation
			JOINT RightLeg
			{
				OFFSET -2.542530 -6.985550 0.000000
				CHANNELS 3 Zrotation Yrotation Xrotation
				JOINT RightFoot
				{
					OFFSET -2.568260 -7.056230 0.000000
					CHANNELS 3 Zrotation Yrotation Xrotation
					JOINT RightToeBase
					{
						OFFSET -0.164730 -0.452590 2.363150
						CHANNELS 3 Zrotation Yrotation Xrotation
						End Site
						{
							OFFSET 0.000000 0.000000 0.000000
						}
					}
				}
			}
		}
	}
}
MOTION
Frames: 33
Frame Time: 0.008333
1.093486 16.915749 0.176282 -21.418564 -81.488023 9.894571 -11.147024 2.778331 1.094682 -3.870912 6.178699 2.289789 -0.832957 1.153114 24.848915 2.754691 16.284855 -14.256766 -2.028600 -0.000000 -36.902800 10.499077 -2.644644 -4.121651 -1.059972 -27.448812 -3.116968 -0.360849 -3.128832 43.582597 -1.974733 -11.750409 7.512223 -2.895500 0.000000 -85.775600
1.091279 16.924642 0.214018 -22.372177 -80.843082 10.649666 -11.167988 2.749161 1.131672 -3.623385 5.865136 2.673353 -0.805563 1.139862 24.562003 2.725283 16.077515 -14.213255 -1.991900 -0.000000 -37.009501 10.580637 -2.605482 -4.205241 -1.136429 -27.910410 -4.382493 -0.519475 -3.251098 45.905503 -2.052304 -12.041657 9.682770 -3.297600 -0.000001 -85.260400
1.090916 16.933096 0.250328 -23.413501 -80.183112 11.490349 -11.195467 2.712679 1.161536 -3.325371 5.562004 3.023203 -0.774029 1.128740 24.325979 2.694486 15.862604 -14.180381 -1.958000 -0.000000 -37.121400 10.651921 -2.554245 -4.296845 -1.132513 -28.353555 -5.712341 -0.660114 -3.367917 48.259978 -2.149038 -12.414511 11.692449 -3.708701 0.000000 -84.063300
1.092013 16.941413 0.284973 -24.526715 -79.526932 12.436467 -11.228649 2.670812 1.195034 -2.986375 5.281449 3.270418 -0.739014 1.116698 24.167326 2.662652 15.642750 -14.166604 -1.930100 0.000000 -37.233300 10.711513 -2.496409 -4.378350 -0.999078 -28.735013 -7.188989 -0.780362 -3.483623 50.665261 -2.258077 -12.875885 13.419782 -4.120400 -0.000000 -82.228700
1.095275 16.948947 0.318346 -25.704797 -78.862760 13.434253 -11.267980 2.624069 1.221891 -2.600958 5.003121 3.495431 -0.700198 1.108895 24.065290 2.631924 15.429305 -14.168724 -1.907300 0.000000 -37.334400 10.758261 -2.429553 -4.483562 -0.812476 -29.164628 -8.712862 -0.879165 -3.602669 53.055078 -2.361255 -13.341643 14.770414 -4.488699 -0.000000 -80.010000
1.100471 16.955966 0.350469 -26.930406 -78.206248 14.486255 -11.312405 2.574242 1.249102 -2.180700 4.733229 3.664179 -0.658229 1.103140 24.026401 2.603245 15.228197 -14.189897 -1.891100 -0.000000 -37.417199 10.791954 -2.357250 -4.602935 -0.550600 -29.626333 -10.337501 -0.960832 -3.729930 55.435833 -2.452228 -13.801049 15.669284 -4.792300 -0.000000 -77.609500
1.108325 16.962121 0.381791 -28.218437 -77.560842 15.583945 -11.363534 2.520922 1.269143 -1.720953 4.473388 3.818175 -0.613125 1.101565 24.034071 2.577054 15.041820 -14.226989 -1.880301 -0.000000 -37.483300 10.811559 -2.279125 -4.749527 -0.238165 -30.152476 -12.027822 -1.030509 -3.869453 57.781172 -2.523401 -14.213200 16.084419 -5.001500 -0.000000 -75.269400
1.118156 16.967786 0.412375 -29.513513 -76.939959 16.689429 -11.417841 2.467316 1.289805 -1.246305 4.223000 3.939386 -0.566096 1.101759 24.080761 2.554901 14.880040 -14.277170 -1.875200 0.000001 -37.517300 10.818552 -2.195124 -4.916094 0.121987 -30.747940 -13.823849 -1.092539 -4.022953 60.089608 -2.570849 -14.547453 16.011353 -5.094000 0.000000 -73.188000
1.130597 16.972852 0.442069 -30.782125 -76.361122 17.770496 -11.473190 2.413404 1.307840 -0.776474 3.987512 4.037347 -0.518436 1.103369 24.150750 2.537901 14.750422 -14.334464 -1.874800 -0.000000 -37.530900 10.813935 -2.101829 -5.099117 0.529557 -31.386438 -15.746799 -1.152146 -4.192808 62.372546 -2.594062 -14.785661 15.481707 -5.061100 -0.000000 -71.371900
1.145719 16.977216 0.471692 -32.082773 -75.823272 18.860229 -11.532988 2.358061 1.314053 -0.293281 3.781139 4.162343 -0.469387 1.107617 24.219102 2.524258 14.642336 -14.392439 -1.876000 -0.000000 -37.523500 10.794892 -2.000884 -5.307979 0.967422 -32.095638 -17.744461 -1.209765 -4.378598 64.590149 -2.590934 -14.894283 14.563051 -4.899100 -0.000000 -69.964200
1.163575 16.980950 0.501201 -33.391031 -75.340056 19.937559 -11.594950 2.301715 1.307547 0.185934 3.611690 4.318084 -0.419943 1.113446 24.271761 2.514242 14.558576 -14.444135 -1.877600 -0.000000 -37.499799 10.761792 -1.890330 -5.536022 1.438402 -32.854933 -19.835279 -1.266631 -4.580035 66.744745 -2.563086 -14.864401 13.335905 -4.622700 0.000001 -68.921400
1.184130 16.984030 0.530959 -34.740532 -74.915013 21.025864 -11.660640 2.243503 1.282305 0.669892 3.493484 4.530453 -0.369829 1.121124 24.291805 2.506366 14.490787 -14.482918 -1.876700 -0.000001 -37.466600 10.712727 -1.771546 -5.783030 1.945667 -33.658965 -21.998357 -1.322380 -4.795682 68.818173 -2.512704 -14.694802 11.896168 -4.257100 0.000001 -68.199900
1.206837 16.986815 0.560289 -36.037790 -74.563788 22.057558 -11.721707 2.185567 1.245756 1.110378 3.416341 4.773396 -0.321063 1.128021 24.275408 2.503555 14.457697 -14.503043 -1.874300 0.000000 -37.422600 10.649726 -1.639497 -6.033872 2.494580 -34.475885 -24.289781 -1.378404 -5.025007 70.826304 -2.445572 -14.406923 10.352077 -3.840700 0.000000 -67.761200
1.232025 16.988979 0.590160 -37.410261 -74.275465 23.126261 -11.786395 2.124559 1.184841 1.556442 3.403300 5.094503 -0.271415 1.136952 24.211334 2.501880 14.435550 -14.501067 -1.866700 -0.000000 -37.380000 10.567559 -1.500804 -6.296974 3.100192 -35.316760 -26.644577 -1.433747 -5.264967 72.730489 -2.365595 -14.022275 8.795854 -3.407300 0.000000 -67.536800
1.259399 16.990578 0.620705 -38.873562 -74.047822 24.248645 -11.854843 2.060050 1.098899 2.010191 3.453803 5.494522 -0.220561 1.148342 24.101120 2.501372 14.424442 -14.474981 -1.853200 0.000000 -37.341700 10.464550 -1.357422 -6.568436 3.781199 -36.171569 -29.065130 -1.489159 -5.513071 74.522552 -2.279245 -13.579620 7.308532 -2.990100 0.000000 -67.461500
1.288095 16.991940 0.651101 -40.329587 -73.886916 25.360371 -11.917415 1.994546 1.000868 2.420648 3.539947 5.927249 -0.170195 1.159614 23.959288 2.506644 14.452159 -14.427118 -1.837600 0.000000 -37.296301 10.341334 -1.205787 -6.831132 4.557737 -37.013221 -31.624141 -1.547470 -5.768531 76.218635 -2.194795 -13.128232 5.960010 -2.617500 0.000000 -67.521501
1.318236 16.992718 0.682236 -41.892655 -73.774427 26.552778 -11.982674 1.925225 0.882055 2.835801 3.669167 6.419445 -0.118089 1.174342 23.793321 2.515342 14.502708 -14.361577 -1.818800 -0.000000 -37.247300 10.192906 -1.054527 -7.092473 5.460265 -37.851319 -34.276071 -1.607992 -6.027005 77.790496 -2.116644 -12.704667 4.771893 -2.299400 -0.000000 -67.615199
1.349320 16.992905 0.713809 -43.526378 -73.705695 27.807351 -12.046916 1.852755 0.749773 3.234153 3.817030 6.940390 -0.064859 1.192296 23.624063 2.530757 14.594414 -14.286582 -1.800600 0.000000 -37.181400 10.017866 -0.904641 -7.342721 6.517960 -38.668046 -37.064941 -1.671827 -6.285999 79.242585 -2.050064 -12.346856 3.753102 -2.040601 0.000000 -67.692201
1.381021 16.992337 0.745908 -45.235242 -73.671567 29.138052 -12.110556 1.776843 0.606792 3.613977 3.965852 7.473342 -0.010612 1.214590 23.472661 2.554821 14.736348 -14.213246 -1.786600 0.000000 -37.088400 9.813800 -0.759997 -7.576737 7.762848 -39.449191 -40.011781 -1.738724 -6.541573 80.571755 -1.998084 -12.080779 2.885684 -1.837000 0.000001 -67.686200
1.413154 16.990830 0.778361 -47.000056 -73.664826 30.537577 -12.172245 1.697035 0.457172 3.962582 4.094130 7.993737 0.043962 1.241820 23.362426 2.590221 14.942049 -14.154613 -1.781300 -0.000001 -36.952300 9.579375 -0.622993 -7.786548 9.224887 -40.171630 -43.150797 -1.808216 -6.789350 81.780101 -1.962127 -11.920192 2.136373 -1.679400 0.000000 -67.533099
1.445336 16.988139 0.811042 -48.799801 -73.679560 32.000112 -12.230809 1.612811 0.303910 4.267776 4.183301 8.479129 0.097904 1.274473 23.315139 2.639283 15.222402 -14.124356 -1.789400 0.000001 -36.759400 9.314244 -0.495743 -7.963791 10.929438 -40.805083 -46.510679 -1.879465 -7.023658 82.870540 -1.942140 -11.867051 1.463754 -1.556500 0.000000 -67.179299
1.477350 16.984049 0.843703 -50.610309 -73.712038 33.515239 -12.284720 1.523266 0.148822 4.517197 4.219542 8.908364 0.149978 1.312810 23.350791 2.703754 15.584892 -14.135930 -1.815600 0.000000 -36.496900 9.019779 -0.378462 -8.100115 12.890913 -41.312926 -50.113108 -1.951558 -7.237661 83.847971 -1.937048 -11.913310 0.826586 -1.456099 0.000000 -66.590400
1.509299 16.978128 0.876312 -52.439004 -73.758512 35.094104 -12.334667 1.426593 -0.009806 4.712329 4.202248 9.269988 0.199393 1.357342 23.483072 2.783577 16.026800 -14.199800 -1.863300 -0.000000 -36.163000 8.699470 -0.270185 -8.190252 15.109491 -41.653439 -53.952871 -2.022858 -7.422680 84.714282 -1.945224 -12.045399 0.187735 -1.366800 -0.000000 -65.758000
1.540669 16.970240 0.908000 -54.198933 -73.822044 36.671919 -12.372934 1.323155 -0.166789 4.816865 4.113795 9.535439 0.243614 1.406614 23.727830 2.880765 16.558171 -14.326436 -1.938500 0.000000 -35.740700 8.359779 -0.162434 -8.225574 17.550853 -41.783386 -58.038109 -2.093685 -7.573235 85.485722 -1.965749 -12.248314 -0.470776 -1.281100 0.000000 -64.722900
1.571545 16.960014 0.938580 -55.885718 -73.901559 38.244694 -12.398574 1.211961 -0.324337 4.832949 3.961072 9.700621 0.281706 1.460615 24.091107 2.993781 17.168656 -14.521225 -2.044200 0.000000 -35.235600 8.008835 -0.047740 -8.207637 20.157024 -41.666511 -62.315570 -2.162257 -7.683736 86.166162 -1.997562 -12.507977 -1.161330 -1.192600 -0.000000 -63.538800
1.601806 16.947223 0.968115 -57.544083 -73.996427 39.850709 -12.413440 1.093075 -0.485906 4.783472 3.770443 9.769798 0.313723 1.518936 24.568369 3.118353 17.834202 -14.781691 -2.180400 -0.000000 -34.665700 7.656504 0.079351 -8.142551 22.851957 -41.274070 -66.694724 -2.225411 -7.751328 86.754290 -2.040264 -12.816228 -1.894582 -1.096200 -0.000000 -62.310000
1.631314 16.931644 0.995711 -59.090433 -74.110844 41.412202 -12.410696 0.968381 -0.647896 4.641990 3.533463 9.732551 0.337628 1.580531 25.163501 3.254130 18.553404 -15.109642 -2.351200 -0.000000 -34.022500 7.313074 0.230975 -8.036271 25.516881 -40.596781 -71.103637 -2.282941 -7.782338 87.263455 -2.094154 -13.165296 -2.660669 -0.991300 -0.000000 -61.139300
1.659944 16.913155 1.021345 -60.560626 -74.245707 42.953817 -12.392339 0.839732 -0.812336 4.430728 3.277492 9.596953 0.353689 1.644756 25.864476 3.396015 19.299941 -15.496611 -2.554800 0.000000 -33.328600 6.987952 0.409985 -7.898488 28.048625 -39.635561 -75.434934 -2.332165 -7.783816 87.690711 -2.159487 -13.551213 -3.459433 -0.875700 -0.000000 -60.139500
1.687409 16.891824 1.044651 -61.926118 -74.402794 44.444442 -12.357591 0.709916 -0.978260 4.151402 3.011489 9.366631 0.361456 1.710938 26.662145 3.540956 20.058874 -15.935821 -2.790600 -0.000001 -32.592599 6.688302 0.618391 -7.736822 30.345656 -38.412869 -79.607940 -2.371975 -7.767495 88.036911 -2.236071 -13.965207 -4.285828 -0.748000 -0.000000 -59.400000
1.713728 16.867563 1.065390 -63.163377 -74.583567 45.853831 -12.307218 0.580688 -1.146521 3.806983 2.742084 9.048521 0.360731 1.779143 27.547947 3.686177 20.816652 -16.420786 -3.057300 -0.000000 -31.819400 6.419003 0.855400 -7.557448 32.327772 -36.963664 -83.561289 -2.401033 -7.744968 88.296424 -2.322537 -14.391286 -5.135216 -0.606700 0.000000 -58.950400
1.738826 16.840501 1.083441 -64.258302 -74.786955 47.161334 -12.243721 0.453627 -1.317802 3.407404 2.478649 8.649300 0.351971 1.849176 28.509628 3.828458 21.557677 -16.942290 -3.351500 0.000000 -31.019600 6.182437 1.116503 -7.362724 33.950099 -35.332066 -87.259595 -2.416936 -7.724975 88.454061 -2.415922 -14.804595 -6.001913 -0.450800 0.000000 -58.797800
1.762726 16.810752 1.098833 -65.192336 -75.012283 48.344457 -12.169517 0.329442 -1.493389 2.959239 2.226576 8.175035 0.335756 1.921037 29.537144 3.965565 22.271110 -17.492944 -3.670100 -0.000000 -30.196400 5.979773 1.396616 -7.152254 35.191251 -33.563175 -90.689439 -2.416146 -7.713129 88.484953 -2.511347 -15.170130 -6.873695 -0.282300 0.000000 -58.892800
1.785235 16.778631 1.111754 -65.921463 -75.247867 49.355667 -12.090459 0.208603 -1.672366 2.477773 1.982050 7.632813 0.313411 1.995043 30.620823 4.095029 22.944072 -18.064567 -4.008000 0.000000 -29.366800 5.806951 1.687834 -6.926438 36.068297 -31.723373 -93.862775 -2.393124 -7.711508 88.354680 -2.600380 -15.436695 -7.730253 -0.106300 0.000000 -59.183200
